# Blender v2.69 (sub 0) OBJ File: 'projectile.blend'
# www.blender.org
o projectile_Cylinder.001
v 0.000000 0.050526 0.295591
v 0.000000 -0.050526 0.295591
v -0.057667 0.050526 0.289912
v -0.057667 -0.050526 0.289912
v -0.113118 0.050526 0.273091
v -0.113118 -0.050526 0.273091
v -0.164222 0.050526 0.245775
v -0.164222 -0.050526 0.245775
v -0.209015 0.050526 0.209015
v -0.209015 -0.050526 0.209015
v 0.203156 0.050526 0.214670
v 0.203156 -0.050526 0.214670
v 0.164221 0.050526 0.245775
v 0.164221 -0.050526 0.245775
v 0.113117 0.050526 0.273091
v 0.113117 -0.050526 0.273091
v 0.057667 0.050526 0.289912
v 0.057667 -0.050526 0.289912
v -0.218788 0.050526 0.189207
v -0.218788 -0.050526 0.189207
v -0.198019 0.050526 0.196460
v -0.198019 -0.050526 0.196460
v -0.144265 0.050526 0.213702
v -0.144265 -0.050526 0.213702
v -0.089290 0.050526 0.223675
v -0.089290 -0.050526 0.223675
v -0.021521 0.050526 0.231005
v -0.021521 -0.050526 0.231005
v 0.034143 0.050526 0.222079
v 0.034143 -0.050526 0.222079
v 0.074880 0.050526 0.201948
v 0.074880 -0.050526 0.201948
v 0.101894 0.050526 0.157057
v 0.101894 -0.050526 0.157057
v 0.085249 0.050526 0.100356
v 0.085249 -0.050526 0.100356
v 0.056182 0.050526 0.068391
v 0.056182 -0.050526 0.068391
v 0.004758 0.050951 0.025762
v 0.004758 -0.050526 0.025762
v 0.095405 0.050526 0.063141
v 0.095405 -0.050526 0.063141
v 0.153383 0.050526 0.130493
v 0.153383 -0.050526 0.130493
v 0.219385 0.050526 0.150477
v 0.219385 -0.050526 0.150477
v 0.225466 0.050526 0.182739
v 0.225466 -0.050526 0.182739
v -0.000000 -0.050526 -0.295523
v -0.000000 0.050526 -0.295523
v 0.059241 -0.050526 -0.288771
v 0.059241 0.050526 -0.288771
v 0.209015 -0.050526 -0.208946
v 0.209015 0.050526 -0.208946
v -0.203156 -0.050526 -0.214601
v -0.203156 0.050526 -0.214601
v -0.164221 -0.050526 -0.245707
v -0.164221 0.050526 -0.245707
v -0.113118 -0.050526 -0.273022
v -0.113118 0.050526 -0.273022
v -0.057667 -0.050526 -0.289843
v -0.057667 0.050526 -0.289843
v 0.218788 -0.050526 -0.189138
v 0.218788 0.050526 -0.189138
v 0.198019 -0.050526 -0.196392
v 0.198019 0.050526 -0.196392
v 0.144265 -0.050526 -0.213633
v 0.144265 0.050526 -0.213633
v 0.089290 -0.050526 -0.223606
v 0.089290 0.050526 -0.223606
v 0.024065 -0.050526 -0.229240
v 0.024065 0.050526 -0.229240
v -0.027358 -0.050526 -0.218619
v -0.027358 0.050526 -0.218619
v -0.073183 -0.050526 -0.196791
v -0.073183 0.050526 -0.196791
v -0.096806 -0.050526 -0.150204
v -0.096806 0.050526 -0.150204
v -0.092034 -0.050526 -0.108768
v -0.092034 0.050526 -0.108768
v -0.062967 -0.050526 -0.068322
v -0.062967 0.050526 -0.068322
v -0.010168 -0.050526 -0.025694
v -0.010168 0.050526 -0.025694
v -0.072509 -0.050526 -0.034749
v -0.072510 0.050526 -0.034749
v -0.138969 -0.050526 -0.092773
v -0.138969 0.050526 -0.092773
v -0.208025 -0.050526 -0.110381
v -0.208025 0.050526 -0.110381
v -0.220887 -0.050526 -0.161300
v -0.220887 0.050526 -0.161300
v 0.101894 0.050526 0.157057
v 0.153383 0.050526 0.130493
v 0.156751 -0.050526 -0.249755
v 0.156751 0.050526 -0.249755
vt 0.283966 0.268059
vt 0.258535 0.268059
vt 0.283966 0.527513
vt 0.233104 0.268059
vt 0.258535 0.527513
vt 0.207673 0.268059
vt 0.233104 0.527513
vt 0.182242 0.268059
vt 0.207673 0.527513
vt 0.813180 0.628043
vt 0.820468 0.612784
vt 0.777484 0.612423
vt 0.382130 0.268059
vt 0.360259 0.268059
vt 0.382129 0.527513
vt 0.334828 0.268059
vt 0.360258 0.527513
vt 0.309397 0.268059
vt 0.309396 0.527513
vt 0.334827 0.527513
vt 0.172548 0.268060
vt 0.182242 0.527513
vt 0.162893 0.268059
vt 0.172548 0.527512
vt 0.138118 0.268059
vt 0.162893 0.527512
vt 0.113597 0.268059
vt 0.138118 0.527513
vt 0.083682 0.268059
vt 0.113597 0.527512
vt 0.058941 0.268059
vt 0.083682 0.527512
vt 0.038999 0.268059
vt 0.058941 0.527512
vt 0.016005 0.268059
vt 0.038999 0.527512
vt 0.953713 0.323004
vt 0.924391 0.317037
vt 0.950788 0.614923
vt 0.902567 0.316734
vt 0.922968 0.619221
vt 0.869006 0.318624
vt 0.901204 0.618678
vt 0.913860 0.301717
vt 0.907853 0.016586
vt 0.846188 0.304561
vt 0.955855 0.297823
vt 0.443898 0.268059
vt 0.413633 0.268059
vt 0.443897 0.527513
vt 0.399225 0.268059
vt 0.413632 0.527513
vt 0.399224 0.527513
vt 0.301294 0.267764
vt 0.301294 0.008311
vt 0.275127 0.267765
vt 0.868407 0.616047
vt 0.399458 0.267764
vt 0.399458 0.008311
vt 0.377587 0.267764
vt 0.377587 0.008311
vt 0.352156 0.267764
vt 0.326725 0.267764
vt 0.326725 0.008311
vt 0.352156 0.008311
vt 0.199932 0.267765
vt 0.199933 0.008311
vt 0.190239 0.267765
vt 0.190239 0.008311
vt 0.180584 0.267765
vt 0.180584 0.008311
vt 0.155809 0.267765
vt 0.155809 0.008311
vt 0.131288 0.267765
vt 0.131288 0.008311
vt 0.102556 0.267765
vt 0.102557 0.008311
vt 0.079511 0.267765
vt 0.079512 0.008311
vt 0.057234 0.267764
vt 0.057236 0.008311
vt 0.034311 0.267764
vt 0.034312 0.008311
vt 0.016005 0.267764
vt 0.786505 0.017787
vt 0.787942 0.303314
vt 0.810561 0.017666
vt 0.812262 0.306549
vt 0.842012 0.017401
vt 0.820792 0.321764
vt 0.478436 0.267764
vt 0.478436 0.008311
vt 0.447159 0.267764
vt 0.447159 0.008311
vt 0.424110 0.267764
vt 0.424110 0.008311
vt 0.912020 0.633508
vt 0.845838 0.629506
vt 0.229034 0.008311
vt 0.229034 0.267765
vt 0.275127 0.008311
vt 0.345337 0.960366
vt 0.334340 0.949231
vt 0.326147 0.968165
vt 0.387052 0.914246
vt 0.354111 0.900119
vt 0.430159 0.825683
vt 0.367167 0.849372
vt 0.440491 0.770728
vt 0.376860 0.788743
vt 0.439089 0.716402
vt 0.370412 0.739923
vt 0.427116 0.663394
vt 0.353102 0.695578
vt 0.311128 0.670323
vt 0.405031 0.613740
vt 0.272045 0.671976
vt 0.378576 0.575212
vt 0.329922 0.555012
vt 0.260267 0.626989
vt 0.281421 0.563590
vt 0.153843 0.982265
vt 0.144684 0.963778
vt 0.134276 0.975467
vt 0.122405 0.915753
vt 0.090236 0.931561
vt 0.106748 0.865747
vt 0.042618 0.845339
vt 0.093940 0.805700
vt 0.029464 0.790991
vt 0.097861 0.756611
vt 0.028062 0.736665
vt 0.112861 0.711433
vt 0.037285 0.683110
vt 0.153476 0.684046
vt 0.056780 0.632383
vt 0.192592 0.683682
vt 0.081212 0.592541
vt 0.128760 0.569858
vt 0.177639 0.575923
vt 0.202034 0.638147
vt 0.579710 0.857206
vt 0.529748 0.837359
vt 0.467937 0.892159
vt 0.470619 0.861815
vt 0.608738 0.896202
vt 0.491443 0.919615
vt 0.648186 0.911087
vt 0.530224 0.944798
vt 0.700398 0.914266
vt 0.579899 0.965374
vt 0.762310 0.901334
vt 0.632633 0.975864
vt 0.812168 0.887125
vt 0.686399 0.975864
vt 0.860237 0.866314
vt 0.788808 0.944798
vt 0.878755 0.857727
vt 0.833513 0.914926
vt 0.871531 0.876907
vt 0.777498 0.324624
vt 0.614508 0.701100
vt 0.473701 0.704896
vt 0.476329 0.735245
vt 0.472838 0.760476
vt 0.532947 0.782415
vt 0.582026 0.760476
vt 0.954153 0.323038
vt 0.653982 0.686284
vt 0.497254 0.677481
vt 0.536080 0.652367
vt 0.585790 0.631878
vt 0.706200 0.683196
vt 0.768089 0.696236
vt 0.638542 0.621480
vt 0.817923 0.710532
vt 0.692309 0.621574
vt 0.865955 0.731425
vt 0.794662 0.652818
vt 0.884458 0.740044
vt 0.877268 0.720852
vt 0.839316 0.682767
vt 0.789485 0.633440
vt 0.016005 0.527512
vt 0.950257 0.015744
vt 0.016006 0.008311
vt 0.951688 0.639482
vt 0.739133 0.965374
vt 0.585412 0.740045
vt 0.745024 0.632155
vn -0.098017 0.000000 0.995185
vn -0.290285 0.000000 0.956940
vn -0.471396 0.000000 0.881921
vn -0.634393 0.000000 0.773011
vn 0.000000 -1.000000 0.000000
vn 0.624176 0.000000 0.781284
vn 0.471396 0.000000 0.881922
vn 0.098017 0.000000 0.995185
vn 0.290282 0.000000 0.956941
vn -0.896778 0.000000 0.442480
vn 0.329737 0.000000 -0.944073
vn 0.305420 0.000000 -0.952218
vn 0.178493 0.000000 -0.983941
vn 0.107536 0.000000 -0.994201
vn -0.158323 0.000000 -0.987387
vn -0.443041 0.000000 -0.896501
vn -0.856812 0.000000 -0.515629
vn -0.959512 0.000000 0.281669
vn -0.739853 0.000000 0.672768
vn -0.638188 0.000000 0.769881
vn 0.643845 0.000000 -0.765156
vn 0.757872 0.000000 -0.652403
vn 0.289798 0.000000 -0.957088
vn 0.982694 0.000000 -0.185239
vn 0.819733 0.000000 0.572746
vn 0.113233 0.000000 -0.993568
vn -0.616573 0.000000 0.787298
vn -0.624175 0.000000 -0.781284
vn -0.471396 0.000000 -0.881921
vn -0.098017 -0.000000 -0.995185
vn -0.290283 0.000000 -0.956941
vn 0.896779 0.000000 -0.442479
vn -0.329738 0.000000 0.944072
vn -0.305421 0.000000 0.952218
vn -0.178493 0.000000 0.983941
vn -0.086058 -0.000000 0.996290
vn 0.202281 0.000000 0.979328
vn 0.430035 0.000000 0.902812
vn 0.891890 0.000000 0.452253
vn 0.993433 0.000000 -0.114412
vn 0.812048 0.000000 -0.583590
vn 0.628186 0.000000 -0.778063
vn -0.657682 -0.000000 0.753296
vn -0.247076 0.000000 0.968996
vn -0.969547 0.000000 0.244907
vn -0.948877 0.000000 -0.315647
vn 0.615434 0.000000 -0.788188
vn 0.371494 0.000000 -0.928435
vn 0.000000 1.000000 0.000000
vn 0.000000 -1.000000 0.000001
vn 0.000000 -1.000000 -0.000001
vn 0.008704 0.999904 -0.010781
vn 0.019883 0.999704 -0.014022
vn 0.000000 0.000000 1.000000
vn 0.000000 1.000000 0.000001
vn 0.000000 1.000000 -0.000001
vn -0.471397 0.000000 0.881921
vn -0.634393 0.000000 0.773010
vn 0.471395 0.000000 0.881922
vn 0.098016 0.000000 0.995185
vn 0.290283 0.000000 0.956941
vn 0.178492 0.000000 -0.983941
vn -0.158324 0.000000 -0.987387
vn -0.443042 0.000000 -0.896501
vn 0.982693 0.000000 -0.185240
vn 0.113232 0.000000 -0.993569
vn -0.624175 0.000000 -0.781285
vn -0.471395 0.000000 -0.881922
vn -0.098016 -0.000000 -0.995185
vn -0.290282 -0.000000 -0.956941
vn 0.896778 0.000000 -0.442480
vn -0.329737 0.000000 0.944073
vn -0.305420 0.000000 0.952218
vn -0.178492 -0.000000 0.983941
vn 0.202281 0.000000 0.979327
vn 0.430034 0.000000 0.902812
vn 0.891889 0.000000 0.452253
vn -0.004498 0.999989 -0.001278
s off
f 1/1/1 3/2/1 2/3/1
f 3/2/2 5/4/2 4/5/2
f 5/4/3 7/6/3 6/7/3
f 7/6/4 9/8/4 8/9/4
f 81/10/5 85/11/5 87/12/5
f 11/13/6 13/14/6 12/15/6
f 13/14/7 15/16/7 14/17/7
f 17/18/8 1/1/8 18/19/8
f 15/16/9 17/18/9 16/20/9
f 9/8/10 19/21/10 10/22/10
f 19/21/11 21/23/11 20/24/11
f 21/23/12 23/25/12 22/26/12
f 23/25/13 25/27/13 24/28/13
f 25/27/14 27/29/14 26/30/14
f 27/29/15 29/31/15 28/32/15
f 29/31/16 31/33/16 30/34/16
f 31/33/17 33/35/17 32/36/17
f 33/37/18 35/38/18 34/39/18
f 35/38/19 37/40/19 36/41/19
f 37/40/20 39/42/20 38/43/20
f 41/44/21 42/45/21 84/46/21
f 41/44/22 43/47/22 42/45/22
f 43/48/23 45/49/23 44/50/23
f 45/49/24 47/51/24 46/52/24
f 47/51/25 11/13/25 48/53/25
f 49/54/26 50/55/26 51/56/26
f 40/57/27 39/42/27 85/11/27
f 55/58/28 56/59/28 57/60/28
f 57/60/29 58/61/29 59/62/29
f 61/63/30 62/64/30 49/54/30
f 59/62/31 60/65/31 61/63/31
f 53/66/32 54/67/32 63/68/32
f 63/68/33 64/69/33 65/70/33
f 65/70/34 66/71/34 67/72/34
f 67/72/35 68/73/35 69/74/35
f 69/74/36 70/75/36 71/76/36
f 71/76/37 72/77/37 73/78/37
f 73/78/38 74/79/38 75/80/38
f 75/80/39 76/81/39 77/82/39
f 77/82/40 78/83/40 79/84/40
f 79/85/41 80/86/41 81/87/41
f 81/87/42 82/88/42 83/89/42
f 85/11/43 86/90/43 87/12/43
f 87/91/44 88/92/44 89/93/44
f 89/93/45 90/94/45 91/95/45
f 91/95/46 92/96/46 55/58/46
f 42/97/5 38/43/5 83/98/5
f 83/98/5 40/57/5 81/10/5
f 36/41/5 42/97/5 34/39/5
f 54/67/47 53/66/47 96/99/47
f 96/99/48 95/100/48 52/101/48
f 54/102/49 66/103/49 64/104/49
f 66/103/49 54/102/49 96/105/49
f 68/106/49 96/105/49 52/107/49
f 70/108/49 52/107/49 50/109/49
f 72/110/49 50/109/49 62/111/49
f 74/112/49 62/111/49 60/113/49
f 76/114/49 60/113/49 78/115/49
f 78/115/49 58/116/49 80/117/49
f 80/117/49 56/118/49 92/119/49
f 88/120/49 92/119/49 90/121/49
f 63/122/5 65/123/5 53/124/5
f 67/125/5 95/126/5 65/123/5
f 69/127/5 51/128/5 67/125/5
f 71/129/5 49/130/5 69/127/5
f 73/131/5 61/132/5 71/129/5
f 75/133/5 59/134/5 73/131/5
f 77/135/5 57/136/5 59/134/5
f 79/137/5 55/138/5 57/136/5
f 55/138/5 79/137/5 91/139/5
f 89/140/5 91/139/5 87/141/5
f 36/41/5 38/43/5 42/97/5
f 34/142/5 44/143/5 48/144/5
f 44/143/5 46/145/5 48/144/5
f 32/146/5 34/142/5 12/147/5
f 30/148/5 32/146/5 14/149/5
f 28/150/5 30/148/5 16/151/5
f 26/152/5 28/150/5 18/153/5
f 24/154/5 26/152/5 2/155/5
f 22/156/5 24/154/5 6/157/5
f 20/158/50 22/156/50 6/157/50
f 20/158/51 8/159/51 10/160/51
f 80/86/49 88/161/49 82/88/49
f 39/42/52 84/46/52 82/88/52
f 84/46/53 39/42/53 37/40/53
f 37/40/49 35/38/49 41/44/49
f 31/162/49 47/163/49 45/164/49
f 45/165/49 43/166/49 93/167/49
f 35/38/54 33/37/54 93/168/54
f 29/169/49 11/170/49 31/162/49
f 29/169/49 13/171/49 11/170/49
f 29/169/49 15/172/49 13/171/49
f 29/169/49 27/173/49 15/172/49
f 27/173/49 25/174/49 17/175/49
f 25/174/49 23/176/49 1/177/49
f 23/176/49 21/178/49 5/179/49
f 21/178/55 19/180/55 5/179/55
f 19/180/56 9/181/56 7/182/56
f 3/2/1 4/5/1 2/3/1
f 5/4/2 6/7/2 4/5/2
f 7/6/57 8/9/57 6/7/57
f 9/8/58 10/22/58 8/9/58
f 79/183/5 81/10/5 87/12/5
f 13/14/6 14/17/6 12/15/6
f 15/16/59 16/20/59 14/17/59
f 1/1/60 2/3/60 18/19/60
f 17/18/61 18/19/61 16/20/61
f 19/21/10 20/24/10 10/22/10
f 21/23/11 22/26/11 20/24/11
f 23/25/12 24/28/12 22/26/12
f 25/27/62 26/30/62 24/28/62
f 27/29/14 28/32/14 26/30/14
f 29/31/63 30/34/63 28/32/63
f 31/33/64 32/36/64 30/34/64
f 33/35/17 34/184/17 32/36/17
f 35/38/18 36/41/18 34/39/18
f 37/40/19 38/43/19 36/41/19
f 39/42/20 40/57/20 38/43/20
f 42/45/21 83/89/21 84/46/21
f 43/47/22 44/185/22 42/45/22
f 45/49/23 46/52/23 44/50/23
f 47/51/65 48/53/65 46/52/65
f 11/13/25 12/15/25 48/53/25
f 50/55/66 52/101/66 51/56/66
f 39/42/27 86/90/27 85/11/27
f 56/59/67 58/61/67 57/60/67
f 58/61/68 60/65/68 59/62/68
f 62/64/69 50/55/69 49/54/69
f 60/65/70 62/64/70 61/63/70
f 54/67/71 64/69/71 63/68/71
f 64/69/72 66/71/72 65/70/72
f 66/71/73 68/73/73 67/72/73
f 68/73/74 70/75/74 69/74/74
f 70/75/36 72/77/36 71/76/36
f 72/77/75 74/79/75 73/78/75
f 74/79/76 76/81/76 75/80/76
f 76/81/77 78/83/77 77/82/77
f 78/83/40 80/186/40 79/84/40
f 80/86/41 82/88/41 81/87/41
f 82/88/42 84/46/42 83/89/42
f 86/90/43 88/161/43 87/12/43
f 88/92/44 90/94/44 89/93/44
f 90/94/45 92/96/45 91/95/45
f 92/96/46 56/59/46 55/58/46
f 38/43/5 40/57/5 83/98/5
f 40/57/5 85/11/5 81/10/5
f 42/97/5 44/187/5 34/39/5
f 53/66/47 95/100/47 96/99/47
f 95/100/48 51/56/48 52/101/48
f 68/106/49 66/103/49 96/105/49
f 70/108/49 68/106/49 52/107/49
f 72/110/49 70/108/49 50/109/49
f 74/112/49 72/110/49 62/111/49
f 76/114/49 74/112/49 60/113/49
f 60/113/49 58/116/49 78/115/49
f 58/116/49 56/118/49 80/117/49
f 88/120/49 80/117/49 92/119/49
f 95/126/5 53/124/5 65/123/5
f 51/128/5 95/126/5 67/125/5
f 49/130/5 51/128/5 69/127/5
f 61/132/5 49/130/5 71/129/5
f 59/134/5 61/132/5 73/131/5
f 75/133/5 77/135/5 59/134/5
f 77/135/5 79/137/5 57/136/5
f 79/137/5 87/141/5 91/139/5
f 12/147/5 34/142/5 48/144/5
f 14/149/5 32/146/5 12/147/5
f 16/151/5 30/148/5 14/149/5
f 18/153/5 28/150/5 16/151/5
f 2/155/5 26/152/5 18/153/5
f 4/188/5 24/154/5 2/155/5
f 24/154/5 4/188/5 6/157/5
f 8/159/5 20/158/5 6/157/5
f 88/161/49 86/90/49 82/88/49
f 86/90/78 39/42/78 82/88/78
f 41/44/49 84/46/49 37/40/49
f 35/38/49 43/47/49 41/44/49
f 33/189/49 31/162/49 45/164/49
f 43/47/49 35/38/49 93/168/49
f 11/170/49 47/163/49 31/162/49
f 27/173/49 17/175/49 15/172/49
f 25/174/49 1/177/49 17/175/49
f 23/176/49 3/190/49 1/177/49
f 3/190/49 23/176/49 5/179/49
f 19/180/49 7/182/49 5/179/49
