# Blender v2.68 (sub 0) OBJ File: 'projectile.blend'
# www.blender.org
o projectile_Cylinder.001
v 0.000000 0.050526 0.295591
v 0.000000 -0.050526 0.295591
v -0.057667 0.050526 0.289912
v -0.057667 -0.050526 0.289912
v -0.113118 0.050526 0.273091
v -0.113118 -0.050526 0.273091
v -0.164222 0.050526 0.245775
v -0.164222 -0.050526 0.245775
v -0.209015 0.050526 0.209015
v -0.209015 -0.050526 0.209015
v 0.203156 0.050526 0.214670
v 0.203156 -0.050526 0.214670
v 0.164221 0.050526 0.245775
v 0.164221 -0.050526 0.245775
v 0.113117 0.050526 0.273091
v 0.113117 -0.050526 0.273091
v 0.057667 0.050526 0.289912
v 0.057667 -0.050526 0.289912
v -0.218788 0.050526 0.189207
v -0.218788 -0.050526 0.189207
v -0.198019 0.050526 0.196460
v -0.198019 -0.050526 0.196460
v -0.144265 0.050526 0.213702
v -0.144265 -0.050526 0.213702
v -0.089290 0.050526 0.223675
v -0.089290 -0.050526 0.223675
v -0.021521 0.050526 0.231005
v -0.021521 -0.050526 0.231005
v 0.034143 0.050526 0.222079
v 0.034143 -0.050526 0.222079
v 0.074880 0.050526 0.201948
v 0.074880 -0.050526 0.201948
v 0.101894 0.050526 0.157057
v 0.101894 -0.050526 0.157057
v 0.085249 0.050526 0.100356
v 0.085249 -0.050526 0.100356
v 0.056182 0.050526 0.068391
v 0.056182 -0.050526 0.068391
v 0.004758 0.050951 0.025762
v 0.004758 -0.050526 0.025762
v 0.095405 0.050526 0.063141
v 0.095405 -0.050526 0.063141
v 0.153383 0.050526 0.130493
v 0.153383 -0.050526 0.130493
v 0.219385 0.050526 0.150477
v 0.219385 -0.050526 0.150477
v 0.225466 0.050526 0.182739
v 0.225466 -0.050526 0.182739
v -0.000000 -0.050526 -0.295523
v -0.000000 0.050526 -0.295523
v 0.059241 -0.050526 -0.288771
v 0.059241 0.050526 -0.288771
v 0.209015 -0.050526 -0.208946
v 0.209015 0.050526 -0.208946
v -0.203156 -0.050526 -0.214601
v -0.203156 0.050526 -0.214601
v -0.164221 -0.050526 -0.245707
v -0.164221 0.050526 -0.245707
v -0.113118 -0.050526 -0.273022
v -0.113118 0.050526 -0.273022
v -0.057667 -0.050526 -0.289843
v -0.057667 0.050526 -0.289843
v 0.218788 -0.050526 -0.189138
v 0.218788 0.050526 -0.189138
v 0.198019 -0.050526 -0.196392
v 0.198019 0.050526 -0.196392
v 0.144265 -0.050526 -0.213633
v 0.144265 0.050526 -0.213633
v 0.089290 -0.050526 -0.223606
v 0.089290 0.050526 -0.223606
v 0.024065 -0.050526 -0.229240
v 0.024065 0.050526 -0.229240
v -0.027358 -0.050526 -0.218619
v -0.027358 0.050526 -0.218619
v -0.073183 -0.050526 -0.196791
v -0.073183 0.050526 -0.196791
v -0.096806 -0.050526 -0.150204
v -0.096806 0.050526 -0.150204
v -0.092034 -0.050526 -0.108768
v -0.092034 0.050526 -0.108768
v -0.062967 -0.050526 -0.068322
v -0.062967 0.050526 -0.068322
v -0.010168 -0.050526 -0.025694
v -0.010168 0.050526 -0.025694
v -0.072509 -0.050526 -0.034749
v -0.072510 0.050526 -0.034749
v -0.138969 -0.050526 -0.092773
v -0.138969 0.050526 -0.092773
v -0.208025 -0.050526 -0.110381
v -0.208025 0.050526 -0.110381
v -0.220887 -0.050526 -0.161300
v -0.220887 0.050526 -0.161300
v 0.101894 0.050526 0.157057
v 0.153383 0.050526 0.130493
v 0.156751 -0.050526 -0.249755
v 0.156751 0.050526 -0.249755
vt 0.643909 0.000180
vt 0.643909 0.316676
vt 0.612887 0.000180
vt 0.612886 0.316676
vt 0.581864 0.000180
vt 0.581864 0.316676
vt 0.550842 0.000180
vt 0.550842 0.316676
vt 0.519820 0.000180
vt 0.468815 0.989146
vt 0.461040 0.972344
vt 0.508099 0.972523
vt 0.763655 0.000180
vt 0.763654 0.316676
vt 0.736976 0.000180
vt 0.736975 0.316676
vt 0.705953 0.000180
vt 0.674931 0.000180
vt 0.674931 0.316676
vt 0.705953 0.316676
vt 0.519820 0.316676
vt 0.507995 0.000180
vt 0.507995 0.316676
vt 0.496217 0.000180
vt 0.496218 0.316676
vt 0.465996 0.000180
vt 0.465996 0.316676
vt 0.436084 0.000180
vt 0.436084 0.316676
vt 0.399591 0.000180
vt 0.399591 0.316676
vt 0.369411 0.000180
vt 0.369411 0.316676
vt 0.345084 0.000180
vt 0.345084 0.316676
vt 0.317035 0.000180
vt 0.319044 0.653346
vt 0.318352 0.972948
vt 0.351222 0.647205
vt 0.348748 0.978024
vt 0.375117 0.647165
vt 0.372581 0.977720
vt 0.411830 0.649681
vt 0.362954 0.630575
vt 0.373333 0.318522
vt 0.436997 0.634591
vt 0.317035 0.625752
vt 0.839003 0.000180
vt 0.839003 0.316676
vt 0.802085 0.000180
vt 0.802084 0.316676
vt 0.784509 0.000180
vt 0.784508 0.316676
vt 0.316676 0.348191
vt 0.000180 0.348191
vt 0.316676 0.316270
vt 0.408518 0.975277
vt 0.316676 0.467937
vt 0.000180 0.467936
vt 0.316676 0.441258
vt 0.000180 0.441257
vt 0.316676 0.410235
vt 0.316676 0.379213
vt 0.000180 0.379213
vt 0.000180 0.410235
vt 0.316676 0.224544
vt 0.000180 0.224544
vt 0.316676 0.212719
vt 0.000180 0.212719
vt 0.316676 0.200941
vt 0.000180 0.200942
vt 0.316676 0.170720
vt 0.000180 0.170720
vt 0.316676 0.140807
vt 0.000180 0.140808
vt 0.316676 0.105759
vt 0.000180 0.105759
vt 0.316676 0.077648
vt 0.000180 0.077648
vt 0.316676 0.050473
vt 0.000180 0.050474
vt 0.316676 0.022510
vt 0.000180 0.022510
vt 0.316676 0.000180
vt 0.506157 0.321456
vt 0.500775 0.634002
vt 0.479825 0.321002
vt 0.474109 0.637219
vt 0.445398 0.320293
vt 0.464569 0.653761
vt 0.316676 0.564279
vt 0.000180 0.564278
vt 0.316676 0.526126
vt 0.000180 0.526125
vt 0.316676 0.498010
vt 0.000180 0.498009
vt 0.360543 0.993810
vt 0.433045 0.990311
vt 0.000180 0.260044
vt 0.316676 0.260043
vt 0.000180 0.316271
vt 0.516450 0.374132
vt 0.522967 0.380243
vt 0.512283 0.385198
vt 0.542154 0.349646
vt 0.550702 0.368236
vt 0.592058 0.323741
vt 0.579468 0.360037
vt 0.623266 0.317035
vt 0.613923 0.353612
vt 0.654288 0.317035
vt 0.641877 0.356573
vt 0.684714 0.323088
vt 0.667438 0.365798
vt 0.682468 0.389379
vt 0.713375 0.334960
vt 0.682099 0.411706
vt 0.735751 0.349489
vt 0.747994 0.376957
vt 0.707945 0.417765
vt 0.743813 0.404761
vt 0.000180 0.597207
vt 0.010864 0.602162
vt 0.004347 0.608273
vt 0.038598 0.614168
vt 0.030051 0.632758
vt 0.067365 0.622366
vt 0.079955 0.658662
vt 0.101820 0.628790
vt 0.111163 0.665367
vt 0.129775 0.625830
vt 0.142185 0.665367
vt 0.155335 0.616605
vt 0.172611 0.659315
vt 0.170366 0.593024
vt 0.201272 0.647444
vt 0.169997 0.570697
vt 0.223648 0.632914
vt 0.235892 0.605447
vt 0.231711 0.577643
vt 0.195843 0.564638
vt 0.064669 0.677178
vt 0.013741 0.713186
vt 0.000180 0.697345
vt 0.035843 0.665726
vt 0.001727 0.679837
vt 0.081418 0.699677
vt 0.036117 0.727716
vt 0.104178 0.708266
vt 0.064778 0.739588
vt 0.134303 0.710100
vt 0.095204 0.745640
vt 0.170024 0.702638
vt 0.126226 0.745640
vt 0.198791 0.694440
vt 0.156652 0.739588
vt 0.226525 0.682433
vt 0.185313 0.727716
vt 0.237209 0.677478
vt 0.211106 0.710481
vt 0.233042 0.688544
vt 0.511924 0.657470
vt 0.593525 0.464063
vt 0.576737 0.486533
vt 0.513800 0.483763
vt 0.512283 0.486892
vt 0.575281 0.486892
vt 0.546964 0.499550
vt 0.616300 0.455514
vt 0.525872 0.450435
vt 0.548274 0.435945
vt 0.576955 0.424123
vt 0.646428 0.453732
vt 0.607392 0.418124
vt 0.682137 0.461256
vt 0.638414 0.418178
vt 0.710889 0.469504
vt 0.668829 0.424284
vt 0.697469 0.436205
vt 0.738603 0.481559
vt 0.749279 0.486532
vt 0.723233 0.453485
vt 0.745130 0.475459
vt 0.494682 0.995370
vt 0.317035 0.316676
vt 0.326925 0.317035
vt 0.000180 0.000180
vt 0.317038 0.999820
vt 0.512283 0.466253
vt 0.318562 0.653377
vn 0.098017 0.000000 -0.995185
vn 0.290285 0.000000 -0.956940
vn 0.471397 0.000000 -0.881921
vn 0.634393 0.000000 -0.773011
vn 0.000000 -1.000000 0.000000
vn -0.624176 0.000000 -0.781284
vn -0.471396 0.000000 -0.881922
vn -0.098017 0.000000 -0.995185
vn -0.290283 0.000000 -0.956941
vn 0.896778 0.000000 -0.442480
vn -0.329738 0.000000 0.944073
vn -0.305420 0.000000 0.952218
vn -0.178492 0.000000 0.983941
vn -0.107536 0.000000 0.994201
vn 0.158323 -0.000000 0.987387
vn 0.443042 -0.000000 0.896501
vn 0.856812 -0.000000 0.515629
vn 0.959512 0.000000 -0.281669
vn 0.739853 0.000000 -0.672768
vn 0.638188 0.000000 -0.769881
vn 0.643845 0.000000 -0.765156
vn -0.757872 0.000000 0.652403
vn -0.289798 0.000000 0.957088
vn -0.982693 0.000000 0.185239
vn -0.819733 0.000000 -0.572746
vn 0.113232 0.000000 -0.993569
vn -0.616573 0.000000 0.787298
vn -0.624175 -0.000000 -0.781284
vn -0.098016 -0.000000 -0.995185
vn -0.329737 0.000000 0.944073
vn -0.178493 -0.000000 0.983941
vn -0.086058 -0.000000 0.996290
vn 0.202281 0.000000 0.979328
vn 0.430035 0.000000 0.902812
vn 0.891890 0.000000 0.452253
vn 0.993433 0.000000 -0.114412
vn 0.812048 0.000000 -0.583590
vn 0.628186 0.000000 -0.778064
vn -0.657682 -0.000000 0.753296
vn -0.247076 0.000000 0.968996
vn -0.969547 0.000000 0.244907
vn -0.948877 -0.000000 -0.315647
vn 0.000000 1.000000 -0.000000
vn 0.615434 0.000000 -0.788188
vn 0.371494 0.000000 -0.928435
vn 0.008704 0.999904 -0.010781
vn 0.019883 0.999704 -0.014022
vn 0.891889 0.000000 0.452253
vn 0.628186 0.000000 -0.778063
vn -0.004498 0.999989 -0.001278
vn 0.000000 0.000000 0.000000
s off
f 1/1/1 2/2/1 3/3/1
f 3/3/2 4/4/2 5/5/2
f 5/5/3 6/6/3 7/7/3
f 7/7/4 8/8/4 9/9/4
f 81/10/5 85/11/5 87/12/5
f 11/13/6 12/14/6 13/15/6
f 13/15/7 14/16/7 15/17/7
f 17/18/8 18/19/8 1/1/8
f 15/17/9 16/20/9 17/18/9
f 9/9/10 10/21/10 19/22/10
f 19/22/11 20/23/11 21/24/11
f 21/24/12 22/25/12 23/26/12
f 23/26/13 24/27/13 25/28/13
f 25/28/14 26/29/14 27/30/14
f 27/30/15 28/31/15 29/32/15
f 29/32/16 30/33/16 31/34/16
f 31/34/17 32/35/17 33/36/17
f 33/37/18 34/38/18 35/39/18
f 35/39/19 36/40/19 37/41/19
f 37/41/20 38/42/20 39/43/20
f 41/44/21 42/45/21 84/46/21
f 41/44/22 42/45/22 43/47/22
f 43/48/23 44/49/23 45/50/23
f 45/50/24 46/51/24 47/52/24
f 47/52/25 48/53/25 11/13/25
f 49/54/26 50/55/26 51/56/26
f 40/57/27 39/43/27 85/11/27
f 55/58/28 56/59/28 57/60/28
f 57/60/7 58/61/7 59/62/7
f 61/63/29 62/64/29 49/54/29
f 59/62/9 60/65/9 61/63/9
f 53/66/10 54/67/10 63/68/10
f 63/68/30 64/69/30 65/70/30
f 65/70/12 66/71/12 67/72/12
f 67/72/31 68/73/31 69/74/31
f 69/74/32 70/75/32 71/76/32
f 71/76/33 72/77/33 73/78/33
f 73/78/34 74/79/34 75/80/34
f 75/80/35 76/81/35 77/82/35
f 77/82/36 78/83/36 79/84/36
f 79/85/37 80/86/37 81/87/37
f 81/87/38 82/88/38 83/89/38
f 85/11/39 86/90/39 87/12/39
f 87/91/40 88/92/40 89/93/40
f 89/93/41 90/94/41 91/95/41
f 91/95/42 92/96/42 55/58/42
f 42/97/5 38/42/5 83/98/5
f 83/98/5 40/57/5 81/10/5
f 36/40/43 34/38/43 42/97/43
f 54/67/44 53/66/44 96/99/44
f 96/99/45 95/100/45 52/101/45
f 54/102/43 66/103/43 64/104/43
f 66/103/43 54/102/43 96/105/43
f 68/106/43 96/105/43 52/107/43
f 70/108/43 52/107/43 50/109/43
f 72/110/43 50/109/43 62/111/43
f 74/112/43 62/111/43 60/113/43
f 76/114/43 60/113/43 78/115/43
f 78/115/43 58/116/43 80/117/43
f 80/117/43 56/118/43 92/119/43
f 88/120/43 92/119/43 90/121/43
f 63/122/5 65/123/5 53/124/5
f 67/125/5 95/126/5 65/123/5
f 69/127/5 51/128/5 67/125/5
f 71/129/5 49/130/5 69/127/5
f 73/131/5 61/132/5 71/129/5
f 75/133/5 59/134/5 73/131/5
f 77/135/5 57/136/5 59/134/5
f 79/137/5 55/138/5 57/136/5
f 55/138/5 79/137/5 91/139/5
f 89/140/5 91/139/5 87/141/5
f 36/40/43 42/97/43 38/42/43
f 34/142/43 12/143/43 48/144/43
f 44/145/43 48/144/43 46/146/43
f 32/147/43 14/148/43 12/143/43
f 30/149/43 16/150/43 14/148/43
f 28/151/43 18/152/43 16/150/43
f 26/153/43 2/154/43 18/152/43
f 24/155/43 4/156/43 2/154/43
f 22/157/43 6/158/43 24/155/43
f 20/159/43 8/160/43 6/158/43
f 20/159/43 10/161/43 8/160/43
f 80/86/43 88/162/43 82/88/43
f 39/43/46 84/46/46 82/88/46
f 84/46/47 39/43/47 37/41/47
f 37/41/5 41/44/5 35/39/5
f 31/163/5 33/164/5 45/165/5
f 45/166/5 93/167/5 43/168/5
f 35/39/5 43/47/5 33/37/5
f 29/169/5 31/163/5 11/170/5
f 29/169/5 11/170/5 13/171/5
f 29/169/5 13/171/5 15/172/5
f 29/169/5 15/172/5 27/173/5
f 27/173/5 17/174/5 25/175/5
f 25/175/5 1/176/5 23/177/5
f 23/177/5 3/178/5 5/179/5
f 21/180/5 5/179/5 19/181/5
f 19/181/5 7/182/5 9/183/5
f 2/2/1 4/4/1 3/3/1
f 4/4/2 6/6/2 5/5/2
f 6/6/3 8/8/3 7/7/3
f 8/8/4 10/21/4 9/9/4
f 79/184/5 81/10/5 87/12/5
f 12/14/6 14/16/6 13/15/6
f 14/16/7 16/20/7 15/17/7
f 18/19/8 2/2/8 1/1/8
f 16/20/9 18/19/9 17/18/9
f 10/21/10 20/23/10 19/22/10
f 20/23/11 22/25/11 21/24/11
f 22/25/12 24/27/12 23/26/12
f 24/27/13 26/29/13 25/28/13
f 26/29/14 28/31/14 27/30/14
f 28/31/15 30/33/15 29/32/15
f 30/33/16 32/35/16 31/34/16
f 32/35/17 34/185/17 33/36/17
f 34/38/18 36/40/18 35/39/18
f 36/40/19 38/42/19 37/41/19
f 38/42/20 40/57/20 39/43/20
f 42/45/21 83/89/21 84/46/21
f 42/45/22 44/186/22 43/47/22
f 44/49/23 46/51/23 45/50/23
f 46/51/24 48/53/24 47/52/24
f 48/53/25 12/14/25 11/13/25
f 50/55/26 52/101/26 51/56/26
f 39/43/27 86/90/27 85/11/27
f 56/59/28 58/61/28 57/60/28
f 58/61/7 60/65/7 59/62/7
f 62/64/29 50/55/29 49/54/29
f 60/65/9 62/64/9 61/63/9
f 54/67/10 64/69/10 63/68/10
f 64/69/30 66/71/30 65/70/30
f 66/71/12 68/73/12 67/72/12
f 68/73/31 70/75/31 69/74/31
f 70/75/32 72/77/32 71/76/32
f 72/77/33 74/79/33 73/78/33
f 74/79/34 76/81/34 75/80/34
f 76/81/48 78/83/48 77/82/48
f 78/83/36 80/187/36 79/84/36
f 80/86/37 82/88/37 81/87/37
f 82/88/49 84/46/49 83/89/49
f 86/90/39 88/162/39 87/12/39
f 88/92/40 90/94/40 89/93/40
f 90/94/41 92/96/41 91/95/41
f 92/96/42 56/59/42 55/58/42
f 38/42/5 40/57/5 83/98/5
f 40/57/5 85/11/5 81/10/5
f 34/38/43 44/188/43 42/97/43
f 53/66/44 95/100/44 96/99/44
f 95/100/45 51/56/45 52/101/45
f 68/106/43 66/103/43 96/105/43
f 70/108/43 68/106/43 52/107/43
f 72/110/43 70/108/43 50/109/43
f 74/112/43 72/110/43 62/111/43
f 76/114/43 74/112/43 60/113/43
f 60/113/43 58/116/43 78/115/43
f 58/116/43 56/118/43 80/117/43
f 88/120/43 80/117/43 92/119/43
f 95/126/5 53/124/5 65/123/5
f 51/128/5 95/126/5 67/125/5
f 49/130/5 51/128/5 69/127/5
f 61/132/5 49/130/5 71/129/5
f 59/134/5 61/132/5 73/131/5
f 75/133/5 77/135/5 59/134/5
f 77/135/5 79/137/5 57/136/5
f 79/137/5 87/141/5 91/139/5
f 44/145/43 34/142/43 48/144/43
f 34/142/43 32/147/43 12/143/43
f 32/147/43 30/149/43 14/148/43
f 30/149/43 28/151/43 16/150/43
f 28/151/43 26/153/43 18/152/43
f 26/153/43 24/155/43 2/154/43
f 6/158/43 4/156/43 24/155/43
f 22/157/43 20/159/43 6/158/43
f 88/162/43 86/90/43 82/88/43
f 86/90/50 39/43/50 82/88/50
f 41/44/43 84/46/43 37/41/43
f 41/44/5 43/47/5 35/39/5
f 47/189/5 31/163/5 45/165/5
f 43/47/51 93/190/51 33/37/51
f 31/163/5 47/189/5 11/170/5
f 15/172/5 17/174/5 27/173/5
f 17/174/5 1/176/5 25/175/5
f 1/176/5 3/178/5 23/177/5
f 21/180/5 23/177/5 5/179/5
f 5/179/5 7/182/5 19/181/5
