# Blender v2.68 (sub 0) OBJ File: 'trapbase.blend'
# www.blender.org
o Cube_Cube.001
v 0.240187 0.075318 -0.419420
v 0.240187 -0.075318 -0.419420
v 0.166226 -0.089555 -0.498703
v 0.166226 0.089555 -0.498703
v 0.166226 0.089555 0.498703
v -0.232673 -0.089555 -0.498703
v -0.232673 0.089555 -0.498703
v 0.166226 -0.089555 0.498703
v -0.232673 -0.089555 0.498703
v -0.232673 0.089555 0.498703
v 0.240187 0.075318 0.419420
v 0.240187 -0.075318 0.419420
v 0.178420 0.055017 -0.306369
v 0.178420 -0.055017 -0.306369
v 0.178420 0.055017 0.306369
v 0.178420 -0.055017 0.306369
v -0.092543 0.055017 -0.306369
v -0.092543 -0.055017 -0.306369
v -0.092543 0.055017 0.306369
v -0.092543 -0.055017 0.306369
vt 0.322662 0.232416
vt 0.677340 0.232416
vt 0.322662 0.374265
vt 0.819188 0.232416
vt 0.819188 0.168725
vt 0.857744 0.227354
vt 0.285482 0.975566
vt 0.285482 0.516978
vt 0.321027 0.913762
vt 0.322661 0.168725
vt 0.180813 0.168725
vt 0.677340 0.168724
vt 0.677340 0.026876
vt 0.322662 0.026876
vt 0.649147 0.000092
vt 0.677340 0.374265
vt 0.350855 0.401048
vt 0.180813 0.232417
vt 0.142257 0.173788
vt 0.096447 0.181008
vt 0.096447 0.220135
vt 0.000092 0.181008
vt 0.142257 0.227354
vt 0.857745 0.173788
vt 0.903554 0.220135
vt 0.712995 0.516978
vt 0.712994 0.975566
vt 0.677450 0.578782
vt 0.529316 0.578782
vt 0.529315 0.913762
vt 0.469161 0.578782
vt 0.321027 0.578782
vt 0.469161 0.913762
vt 0.677449 0.913762
vt 0.903554 0.181007
vt 0.999907 0.220136
vt 0.350855 0.000092
vt 0.649147 0.401049
vt 0.000092 0.220136
vt 0.999908 0.181009
vn -0.000000 -1.000000 0.000000
vn 0.731222 0.000000 -0.682139
vn 0.312242 0.950002 -0.000000
vn 0.000000 -0.000000 1.000000
vn 0.000000 1.000000 0.000000
vn 0.189027 0.981972 0.000000
vn -0.000000 -0.000000 -1.000000
vn -1.000000 0.000000 -0.000000
vn 0.189027 -0.981972 0.000000
vn 0.731222 -0.000000 0.682139
vn 0.877560 0.000000 -0.479467
vn 0.877560 0.000000 0.479467
vn 0.312242 -0.950002 0.000000
vn 1.000000 -0.000000 0.000000
s off
f 9/1/1 6/2/1 8/3/1
f 3/4/2 4/5/2 2/6/2
f 12/7/3 2/8/3 16/9/3
f 10/10/4 9/1/4 5/11/4
f 7/12/5 10/10/5 4/13/5
f 4/13/6 5/14/6 1/15/6
f 6/2/7 7/12/7 3/4/7
f 7/12/8 6/2/8 10/10/8
f 8/3/9 3/16/9 12/17/9
f 5/11/10 8/18/10 11/19/10
f 15/20/7 16/21/7 19/22/7
f 11/19/11 12/23/11 15/20/11
f 2/6/12 1/24/12 14/25/12
f 1/26/13 11/27/13 13/28/13
f 17/29/14 19/30/14 18/31/14
f 16/9/5 14/32/5 20/33/5
f 13/28/1 15/34/1 17/29/1
f 14/25/4 13/35/4 18/36/4
f 6/2/1 3/16/1 8/3/1
f 4/5/2 1/24/2 2/6/2
f 2/8/3 14/32/3 16/9/3
f 9/1/4 8/18/4 5/11/4
f 10/10/5 5/14/5 4/13/5
f 5/14/6 11/37/6 1/15/6
f 7/12/7 4/5/7 3/4/7
f 6/2/8 9/1/8 10/10/8
f 3/16/9 2/38/9 12/17/9
f 8/18/10 12/23/10 11/19/10
f 16/21/7 20/39/7 19/22/7
f 12/23/11 16/21/11 15/20/11
f 1/24/12 13/35/12 14/25/12
f 11/27/13 15/34/13 13/28/13
f 19/30/14 20/33/14 18/31/14
f 14/32/5 18/31/5 20/33/5
f 15/34/1 19/30/1 17/29/1
f 13/35/4 17/40/4 18/36/4
