# Blender v2.69 (sub 0) OBJ File: 'gold.blend'
# www.blender.org
o Plane
v 0.435725 0.171490 0.459165
v -0.522461 0.171490 0.477931
v 0.383670 0.171490 -0.422685
v -0.445585 0.171490 -0.393253
v 0.347594 0.171490 0.496826
v 0.264979 0.171490 0.515181
v 0.179606 0.171490 0.516990
v 0.105264 0.171490 0.518799
v 0.017133 0.171490 0.517849
v -0.060984 0.171490 0.555151
v -0.152176 0.171490 0.527573
v -0.204759 0.171490 0.522057
v -0.312498 0.171490 0.522057
v -0.420238 0.171490 0.522057
v 0.352002 0.171490 -0.447506
v 0.309301 0.171490 -0.491631
v 0.250054 0.171490 -0.505421
v 0.135650 0.171490 -0.560578
v 0.046756 0.171490 -0.596889
v -0.060984 0.171490 -0.596889
v -0.121838 0.171490 -0.585858
v -0.237852 0.171490 -0.561036
v -0.329044 0.171490 -0.500362
v -0.388629 0.171490 -0.424417
v -0.485283 0.171490 -0.332466
v -0.514425 0.171490 -0.265732
v -0.531662 0.171490 -0.216129
v -0.530735 0.171490 -0.137203
v -0.565208 0.171490 -0.062022
v -0.572869 0.171490 0.039972
v -0.538395 0.171490 0.145796
v -0.496850 0.171490 0.243960
v -0.513498 0.171490 0.338293
v -0.527977 0.171490 0.414317
v 0.483558 0.171490 0.365518
v 0.506570 0.171490 0.302208
v 0.513035 0.171490 0.219593
v 0.585453 0.171490 0.157287
v 0.585453 0.171490 0.049548
v 0.585453 0.171490 -0.058192
v 0.527079 0.171490 -0.169149
v 0.507774 0.171490 -0.278037
v 0.452617 0.171490 -0.351074
v 0.422280 0.171490 -0.402048
v -0.413968 0.274325 0.425349
v -0.405758 0.291786 0.338293
v -0.437728 0.255803 0.243960
v -0.491942 0.321731 0.157287
v -0.491942 0.330850 0.049548
v -0.491942 0.345636 -0.058192
v -0.416942 0.301404 -0.151204
v -0.416942 0.261933 -0.216129
v -0.416942 0.229790 -0.281054
v -0.385662 0.215867 -0.367460
v -0.347110 0.309520 0.414317
v -0.340153 0.347876 0.345954
v -0.384202 0.344472 0.265027
v -0.384202 0.394792 0.157287
v -0.384202 0.426031 0.049548
v -0.384202 0.434050 -0.058192
v -0.352017 0.347096 -0.151204
v -0.352017 0.314821 -0.216129
v -0.352017 0.296410 -0.355402
v -0.326286 0.191550 -0.431233
v -0.262673 0.326758 0.436380
v -0.276463 0.361304 0.372766
v -0.276463 0.425209 0.265027
v -0.276463 0.509861 0.157287
v -0.276463 0.563697 0.049548
v -0.276463 0.553224 -0.058192
v -0.276463 0.531886 -0.165931
v -0.287092 0.369586 -0.216129
v -0.276463 0.331476 -0.381410
v -0.276463 0.235018 -0.489150
v -0.168723 0.323029 0.414317
v -0.168723 0.340713 0.372766
v -0.168723 0.436614 0.265027
v -0.168723 0.561234 0.157287
v -0.168723 0.593289 0.049548
v -0.168723 0.593241 -0.058192
v -0.168723 0.560539 -0.165931
v -0.168723 0.416248 -0.273671
v -0.168723 0.335695 -0.381410
v -0.168723 0.199520 -0.489150
v -0.060984 0.234504 0.480506
v -0.060984 0.325881 0.372766
v -0.060984 0.396834 0.265027
v -0.060984 0.563449 0.157287
v -0.060984 0.664042 0.049548
v -0.060984 0.664042 -0.058192
v -0.060984 0.557721 -0.165931
v -0.060984 0.370672 -0.273671
v -0.060984 0.258752 -0.381410
v -0.060984 0.227947 -0.489150
v 0.031872 0.240630 0.404898
v 0.021790 0.264921 0.322282
v 0.022739 0.354917 0.250699
v 0.046756 0.562503 0.157287
v 0.046756 0.664042 0.049548
v 0.046756 0.664042 -0.058192
v 0.046756 0.551083 -0.165931
v 0.046756 0.321807 -0.273671
v 0.046756 0.229857 -0.381410
v 0.046756 0.220883 -0.489150
v 0.114487 0.233495 0.394816
v 0.104405 0.288472 0.312200
v 0.105354 0.365352 0.257164
v 0.154495 0.489030 0.157287
v 0.154495 0.553087 0.049548
v 0.154495 0.560703 -0.058192
v 0.121860 0.341323 -0.138812
v 0.119103 0.332024 -0.275279
v 0.119103 0.223846 -0.359347
v 0.149439 0.191418 -0.446173
v 0.197102 0.258912 0.384733
v 0.203567 0.335090 0.332455
v 0.201759 0.375022 0.247081
v 0.262235 0.372327 0.157287
v 0.262235 0.335501 0.049548
v 0.262235 0.381451 -0.058192
v 0.203171 0.321622 -0.136054
v 0.183866 0.291878 -0.239427
v 0.197655 0.202526 -0.351074
v 0.214202 0.161888 -0.440657
v 0.279718 0.252701 0.374651
v 0.286183 0.325003 0.303067
v 0.276100 0.329013 0.234241
v 0.369974 0.278538 0.157287
v 0.369974 0.282519 0.049548
v 0.369974 0.278092 -0.058192
v 0.342396 0.292774 -0.167192
v 0.248629 0.240956 -0.195302
v 0.281723 0.202526 -0.320737
v 0.276207 0.161888 -0.415837
v 0.362333 0.205764 0.364569
v 0.379829 0.254473 0.284712
v 0.413873 0.258022 0.221401
v 0.477714 0.232378 0.157287
v 0.477714 0.229737 0.049548
v 0.477714 0.219287 -0.058192
v 0.434737 0.203520 -0.148074
v 0.357517 0.202526 -0.217364
v 0.332697 0.166439 -0.301432
v 0.332697 0.161888 -0.371711
v -0.060984 0.171490 -0.596889
v 0.046756 0.171490 -0.596889
vt 0.738813 0.839322
vt 0.812239 0.868235
vt 0.779232 0.883996
vt 0.051496 0.737004
vt 0.144092 0.762549
vt 0.128348 0.820771
vt 0.179877 0.823465
vt 0.180382 0.880097
vt 0.241191 0.850367
vt 0.255468 0.933162
vt 0.323978 0.883740
vt 0.347569 0.971163
vt 0.411428 0.889696
vt 0.396543 0.987282
vt 0.495208 0.903423
vt 0.485268 0.998351
vt 0.584982 0.885034
vt 0.641368 0.886985
vt 0.562400 0.977801
vt 0.691287 0.871967
vt 0.712445 0.937054
vt 0.087037 0.047345
vt 0.178091 0.020186
vt 0.196377 0.132223
vt 0.075991 0.100706
vt 0.191583 0.201824
vt 0.064541 0.165893
vt 0.054514 0.246651
vt 0.135250 0.261996
vt 0.139807 0.347714
vt 0.021705 0.330186
vt 0.000099 0.419610
vt 0.134976 0.421366
vt 0.141194 0.494185
vt 0.000099 0.503042
vt 0.153564 0.580829
vt 0.016580 0.571365
vt 0.016591 0.637704
vt 0.134878 0.635050
vt 0.122433 0.690434
vt 0.028947 0.679561
vt 0.269455 0.012552
vt 0.250995 0.154307
vt 0.257313 0.213721
vt 0.215690 0.269513
vt 0.226177 0.354952
vt 0.230241 0.428602
vt 0.231349 0.497881
vt 0.208723 0.582908
vt 0.197179 0.631519
vt 0.201610 0.730246
vt 0.361989 0.010294
vt 0.316583 0.147837
vt 0.307440 0.200031
vt 0.311841 0.289520
vt 0.322946 0.375950
vt 0.330392 0.440421
vt 0.324016 0.494889
vt 0.319328 0.549054
vt 0.257330 0.625162
vt 0.261638 0.744895
vt 0.404948 0.009266
vt 0.385530 0.157469
vt 0.386318 0.190312
vt 0.385679 0.289776
vt 0.386881 0.388491
vt 0.384787 0.445194
vt 0.381281 0.497657
vt 0.373426 0.551884
vt 0.351045 0.658919
vt 0.337361 0.754290
vt 0.484703 0.000099
vt 0.474801 0.079886
vt 0.463725 0.186174
vt 0.460576 0.274750
vt 0.442823 0.391551
vt 0.439486 0.456676
vt 0.435070 0.495395
vt 0.425701 0.560150
vt 0.426548 0.688728
vt 0.423108 0.803404
vt 0.549632 0.033243
vt 0.546902 0.140534
vt 0.538568 0.199267
vt 0.522276 0.269867
vt 0.496380 0.402368
vt 0.478079 0.461869
vt 0.472990 0.499951
vt 0.478366 0.561846
vt 0.507343 0.710641
vt 0.507841 0.819627
vt 0.622198 0.043634
vt 0.609657 0.154740
vt 0.588334 0.223928
vt 0.574778 0.288004
vt 0.569020 0.397236
vt 0.542797 0.462654
vt 0.532171 0.513177
vt 0.575477 0.631697
vt 0.559045 0.712649
vt 0.565478 0.809544
vt 0.683077 0.056921
vt 0.669924 0.186997
vt 0.657708 0.254867
vt 0.638334 0.320668
vt 0.675299 0.393455
vt 0.691036 0.472370
vt 0.655899 0.548251
vt 0.629145 0.629470
vt 0.614397 0.706322
vt 0.628998 0.811762
vt 0.751953 0.073205
vt 0.734539 0.206773
vt 0.712926 0.282749
vt 0.704642 0.333173
vt 0.785188 0.396285
vt 0.777979 0.480804
vt 0.768916 0.564808
vt 0.730936 0.638144
vt 0.677139 0.690715
vt 0.694821 0.789260
vt 0.816171 0.101223
vt 0.811977 0.214653
vt 0.804798 0.292547
vt 0.826585 0.346900
vt 0.879817 0.402557
vt 0.873350 0.490435
vt 0.866795 0.579096
vt 0.829645 0.654691
vt 0.762924 0.710594
vt 0.744890 0.784896
vt 0.885209 0.142818
vt 0.914928 0.225829
vt 0.930159 0.279008
vt 0.934927 0.347601
vt 0.981963 0.411564
vt 0.973575 0.500696
vt 0.964242 0.589629
vt 0.909843 0.679247
vt 0.887542 0.768934
vt 0.839568 0.826679
vt 0.396363 0.988832
vt 0.751677 0.903309
vt 0.083611 0.789007
vt 0.661656 0.943225
vt 0.485088 0.999901
vn -0.064993 0.990450 0.121595
vn -0.493270 0.698457 -0.518500
vn 0.089679 0.955550 -0.280859
vn -0.804302 0.159034 -0.572544
vn 0.310576 0.942605 -0.122631
vn -0.227579 0.862515 -0.451969
vn 0.059493 0.907415 -0.416004
vn 0.399100 0.833491 -0.382114
vn 0.420480 0.883920 -0.204650
vn -0.042882 0.993320 0.107125
vn -0.073272 0.992891 0.093802
vn -0.296399 0.663817 0.686655
vn -0.671881 0.735854 0.084233
vn -0.738559 0.661469 -0.130345
vn -0.593944 0.416482 0.688312
vn -0.917882 0.260935 0.299009
vn -0.891415 0.448981 0.061616
vn -0.669540 0.296666 -0.680959
vn -0.751737 0.659404 0.008833
vn -0.577037 0.731928 -0.362366
vn -0.523004 0.791257 -0.316826
vn 0.000000 0.615303 0.788291
vn -0.365041 0.827290 0.427009
vn -0.643185 0.762244 -0.072779
vn -0.857604 0.465991 0.217641
vn -0.545752 0.804798 0.233356
vn -0.661052 0.748270 0.055689
vn -0.461714 0.562635 -0.685756
vn -0.515351 0.732274 -0.445184
vn -0.628284 0.771274 -0.101959
vn -0.837003 0.404770 -0.368222
vn -0.289415 0.847057 0.445795
vn -0.242031 0.965981 0.091116
vn -0.507664 0.677457 0.532287
vn -0.690798 0.646795 0.323195
vn -0.786675 0.615665 0.045820
vn -0.555876 0.502540 -0.662159
vn -0.915586 0.360086 -0.179001
vn -0.630001 0.746889 -0.212731
vn -0.498726 0.645771 -0.578146
vn -0.092941 0.454237 0.886019
vn 0.140433 0.882517 0.448823
vn 0.162206 0.848696 0.503392
vn -0.069069 0.652452 0.754676
vn -0.415670 0.871749 0.259371
vn -0.263700 0.960079 -0.093327
vn -0.342334 0.921676 -0.182538
vn -0.079595 0.299294 -0.950835
vn -0.518774 0.684696 -0.511922
vn -0.024293 0.620286 -0.783999
vn -0.238955 0.564433 0.790137
vn 0.458166 0.817873 0.348091
vn 0.102288 0.743035 0.661390
vn 0.234732 0.635741 0.735346
vn -0.015026 0.730850 0.682373
vn -0.548919 0.835875 -0.000374
vn -0.532322 0.810049 -0.245875
vn 0.013055 0.499077 -0.866459
vn 0.281512 0.665477 -0.691297
vn 0.566050 0.792610 -0.226621
vn 0.252560 0.810228 0.528908
vn 0.150398 0.953291 0.261946
vn 0.688947 0.605336 0.398648
vn 0.383752 0.501428 0.775438
vn 0.006413 0.730917 0.682436
vn 0.000000 1.000000 0.000000
vn 0.000000 0.690192 -0.723626
vn 0.026192 0.425149 -0.904744
vn 0.326127 0.719056 -0.613677
vn 0.258208 0.962756 -0.080183
vn -0.004815 0.894521 0.447000
vn 0.137414 0.832271 0.537069
vn -0.066757 0.581341 0.810916
vn -0.123322 0.419054 0.899548
vn 0.444550 0.651876 0.614356
vn 0.717427 0.696634 0.000000
vn 0.281760 0.293758 -0.913410
vn 0.942351 0.332023 -0.041668
vn -0.120967 0.755058 -0.644403
vn 0.107484 0.990777 -0.082517
vn 0.013443 0.833332 0.552610
vn -0.074944 0.568567 0.819216
vn -0.455885 0.802461 0.385001
vn -0.110004 0.988501 -0.103757
vn 0.681430 0.629092 0.374028
vn 0.895715 0.443521 0.031352
vn 0.592279 0.355990 -0.722825
vn 0.237164 0.968885 -0.070813
vn 0.635789 0.639038 -0.432901
vn 0.279512 0.892754 -0.353361
vn 0.010616 0.865291 0.501157
vn 0.138545 0.690500 0.709940
vn 0.134404 0.990198 0.037994
vn 0.536404 0.837393 0.105093
vn 0.656331 0.753958 0.027862
vn 0.412132 0.838085 0.357436
vn 0.470428 0.490367 -0.733647
vn 0.129744 0.946185 -0.296480
vn 0.717625 0.584287 -0.378976
vn 0.139840 0.911192 -0.387524
vn 0.056966 0.964892 0.256395
vn 0.430238 0.615404 0.660434
vn 0.604714 0.707955 0.364856
vn 0.463338 0.879374 0.109634
vn 0.393593 0.918658 0.033947
vn 0.438286 0.894637 -0.086775
vn 0.479089 0.877761 -0.002988
vn 0.256653 0.058893 -0.964708
vn 0.218715 0.871599 -0.438724
vn 0.625695 0.703547 -0.336937
vn 0.270037 0.957834 0.098153
vn 0.543167 0.838548 0.042505
vn 0.526382 0.590427 0.611816
vn 0.492004 0.870593 0.000000
vn 0.475578 0.879674 0.000000
vn 0.382246 0.861622 -0.333910
vn 0.252467 0.921674 -0.294581
vn 0.027176 0.915640 -0.401079
vn -0.033772 0.999227 0.020099
vn 0.000000 0.000000 1.000000
vn -0.082039 0.991117 0.104673
vn -0.600980 0.645361 -0.471521
vn -0.178094 0.946908 -0.267669
vn -0.149474 0.699698 -0.698628
vn -0.054816 0.951608 -0.302385
vn 0.000000 0.885757 -0.464149
vn 0.073413 0.980974 -0.179722
vn -0.055957 0.991664 0.116063
vn -0.030297 0.991028 0.130174
vn -0.102583 0.989759 0.099270
vn -0.671745 0.738489 0.058244
vn -0.737529 0.660546 -0.140464
vn -0.817368 0.573151 0.058382
vn -0.892375 0.247031 0.377680
vn -0.891893 0.450635 0.038141
vn -0.919003 0.388160 -0.069026
vn -0.726750 0.600654 -0.333240
vn -0.558707 0.708678 -0.430838
vn -0.525614 0.830886 -0.182644
vn -0.456309 0.867222 -0.199268
vn -0.238734 0.672949 0.700104
vn -0.653238 0.751880 0.089205
vn -0.815328 0.390643 0.427361
vn -0.400726 0.590935 0.700153
vn -0.660752 0.747930 0.063303
vn -0.630830 0.768716 0.105495
vn -0.437876 0.622188 -0.648958
vn -0.589320 0.723442 -0.359629
vn -0.819060 0.514146 -0.254545
vn -0.610134 0.360498 -0.705534
vn -0.304885 0.370426 0.877399
vn -0.376066 0.777644 0.503829
vn -0.541746 0.722939 0.428801
vn -0.695403 0.651106 0.304098
vn -0.775221 0.606701 0.175916
vn -0.740227 0.669203 -0.065052
vn -0.925144 0.372382 -0.073751
vn -0.253837 0.300934 -0.919242
vn -0.450938 0.884857 -0.116975
vn -0.811659 0.198195 -0.549481
vn 0.205365 0.600181 0.773051
vn 0.173201 0.906223 0.385695
vn -0.078826 0.744628 0.662809
vn -0.351070 0.736269 0.578496
vn -0.238602 0.868702 0.434080
vn -0.348184 0.937426 -0.000420
vn -0.246619 0.927335 -0.281476
vn -0.530228 0.507270 -0.679364
vn -0.038114 0.973185 -0.226845
vn 0.238403 0.723558 -0.647787
vn 0.225603 0.744434 0.628428
vn 0.104413 0.758472 0.643287
vn 0.294673 0.798081 0.525580
vn -0.011163 0.542968 0.839679
vn -0.532693 0.811166 0.241347
vn -0.549181 0.835704 0.000000
vn 0.018615 0.711653 -0.702285
vn 0.245357 0.580009 -0.776781
vn 0.496492 0.695212 -0.519785
vn -0.161563 0.612318 -0.773928
vn 0.428931 0.690270 0.582705
vn 0.691086 0.551216 0.467506
vn 0.406217 0.566201 0.717219
vn 0.003597 0.410007 0.912075
vn 0.000000 0.727739 0.685854
vn 0.043807 0.711092 -0.701733
vn 0.220788 0.486802 -0.845148
vn 0.182865 0.681830 -0.708285
vn 0.062913 0.959568 -0.274357
vn 0.136955 0.836807 0.530092
vn -0.227449 0.926380 0.300145
vn -0.138577 0.617393 0.774353
vn 0.343475 0.503662 0.792685
vn 0.662822 0.643612 0.382661
vn 0.691317 0.720753 0.050949
vn 0.909577 0.286799 -0.300693
vn -0.079933 0.423934 -0.902159
vn 0.280099 0.589055 -0.757997
vn 0.352088 0.910460 -0.217017
vn -0.218795 0.879132 0.423386
vn -0.446711 0.718731 0.532798
vn 0.026678 0.581670 0.812987
vn 0.470037 0.433935 0.768613
vn 0.886023 0.438722 -0.149957
vn 0.837128 0.503157 0.214593
vn 0.111330 0.328161 -0.938038
vn 0.621094 0.714699 -0.321633
vn 0.242264 0.595338 -0.766082
vn 0.420726 0.888183 -0.184716
vn 0.129757 0.819191 0.558650
vn 0.342724 0.511626 0.787895
vn 0.536065 0.768965 0.348320
vn 0.605454 0.695513 0.386893
vn 0.421885 0.857917 -0.293241
vn 0.691979 0.721309 -0.029639
vn 0.218527 0.972886 0.075750
vn 0.402553 -0.250882 -0.880346
vn 0.096756 0.958512 -0.268130
vn 0.158418 0.904592 -0.395748
vn 0.477519 0.738107 0.476627
vn 0.578202 0.634083 0.513442
vn 0.456878 0.889401 -0.015116
vn 0.390898 0.912368 -0.121586
vn 0.439839 0.897807 -0.022002
vn 0.478780 0.877195 -0.036044
vn 0.672471 0.604163 -0.427516
vn 0.261521 0.915878 -0.304589
vn 0.597303 0.797318 -0.086684
vn 0.050415 0.996641 -0.064541
vn 0.260059 0.927284 0.269282
vn 0.408097 0.736917 0.538897
vn 0.614747 0.696753 0.369623
vn 0.487138 0.861984 0.140289
vn 0.475467 0.879470 -0.021553
vn 0.403935 0.910514 -0.088315
vn 0.292303 0.943880 -0.153781
vn 0.189164 0.981373 -0.033537
vn -0.032066 0.999192 0.024217
vn -0.127797 0.989727 -0.064094
s off
f 144/1/1 44/2/1 3/3/1
f 25/4/2 54/5/2 24/6/2
f 54/5/3 64/7/3 23/8/3
f 64/7/4 74/9/4 22/10/4
f 74/9/5 84/11/5 21/12/5
f 84/11/6 94/13/6 20/14/6
f 94/13/7 104/15/7 19/16/7
f 104/15/8 114/17/8 19/16/8
f 114/17/9 124/18/9 18/19/9
f 124/18/10 134/20/10 16/21/10
f 134/20/11 144/1/11 16/21/11
f 2/22/12 14/23/12 45/24/12
f 34/25/13 45/24/13 46/26/13
f 33/27/14 46/26/14 32/28/14
f 32/28/15 47/29/15 48/30/15
f 31/31/16 48/30/16 30/32/16
f 30/32/17 49/33/17 50/34/17
f 29/35/18 50/34/18 51/36/18
f 28/37/19 51/36/19 27/38/19
f 27/38/20 52/39/20 53/40/20
f 26/41/21 53/40/21 54/5/21
f 14/23/22 13/42/22 55/43/22
f 45/24/23 55/43/23 56/44/23
f 46/26/24 56/44/24 47/29/24
f 47/29/25 57/45/25 58/46/25
f 48/30/26 58/46/26 59/47/26
f 49/33/27 59/47/27 60/48/27
f 50/34/28 60/48/28 61/49/28
f 51/36/29 61/49/29 52/39/29
f 52/39/30 62/50/30 63/51/30
f 53/40/31 63/51/31 54/5/31
f 13/42/22 12/52/22 55/43/22
f 55/43/32 65/53/32 56/44/32
f 56/44/33 66/54/33 57/45/33
f 57/45/34 67/55/34 68/56/34
f 58/46/35 68/56/35 69/57/35
f 59/47/36 69/57/36 60/48/36
f 60/48/37 70/58/37 61/49/37
f 61/49/38 71/59/38 62/50/38
f 62/50/39 72/60/39 73/61/39
f 63/51/40 73/61/40 74/9/40
f 12/52/41 11/62/41 65/53/41
f 65/53/42 75/63/42 66/54/42
f 66/54/43 76/64/43 67/55/43
f 67/55/44 77/65/44 78/66/44
f 68/56/45 78/66/45 79/67/45
f 69/57/46 79/67/46 70/58/46
f 70/58/47 80/68/47 71/59/47
f 71/59/48 81/69/48 72/60/48
f 72/60/49 82/70/49 83/71/49
f 73/61/50 83/71/50 84/11/50
f 11/62/51 10/72/51 75/63/51
f 75/63/52 85/73/52 76/64/52
f 76/64/53 86/74/53 77/65/53
f 77/65/54 87/75/54 78/66/54
f 78/66/55 88/76/55 89/77/55
f 79/67/56 89/77/56 80/68/56
f 80/68/57 90/78/57 81/69/57
f 81/69/58 91/79/58 92/80/58
f 82/70/59 92/80/59 93/81/59
f 83/71/60 93/81/60 94/13/60
f 10/72/61 9/82/61 95/83/61
f 85/73/62 95/83/62 96/84/62
f 86/74/63 96/84/63 87/75/63
f 87/75/64 97/85/64 88/76/64
f 88/76/65 98/86/65 89/77/65
f 89/77/66 99/87/66 90/78/66
f 90/78/67 100/88/67 101/89/67
f 91/79/68 101/89/68 102/90/68
f 92/80/69 102/90/69 103/91/69
f 93/81/70 103/91/70 104/15/70
f 9/82/71 8/92/71 105/93/71
f 95/83/72 105/93/72 106/94/72
f 96/84/73 106/94/73 107/95/73
f 97/85/74 107/95/74 98/86/74
f 98/86/75 108/96/75 99/87/75
f 99/87/76 109/97/76 100/88/76
f 100/88/77 110/98/77 111/99/77
f 101/89/78 111/99/78 112/100/78
f 102/90/79 112/100/79 103/91/79
f 103/91/80 113/101/80 104/15/80
f 8/92/81 7/102/81 115/103/81
f 105/93/82 115/103/82 116/104/82
f 106/94/83 116/104/83 117/105/83
f 107/95/84 117/105/84 118/106/84
f 108/96/85 118/106/85 109/97/85
f 109/97/86 119/107/86 110/98/86
f 110/98/87 120/108/87 121/109/87
f 111/99/88 121/109/88 112/100/88
f 112/100/89 122/110/89 123/111/89
f 113/101/90 123/111/90 124/18/90
f 7/102/91 6/112/91 125/113/91
f 115/103/92 125/113/92 126/114/92
f 116/104/93 126/114/93 127/115/93
f 117/105/94 127/115/94 128/116/94
f 118/106/95 128/116/95 129/117/95
f 119/107/96 129/117/96 120/108/96
f 120/108/97 130/118/97 121/109/97
f 121/109/98 131/119/98 122/110/98
f 122/110/99 132/120/99 123/111/99
f 123/111/100 133/121/100 124/18/100
f 6/112/101 5/122/101 135/123/101
f 125/113/102 135/123/102 126/114/102
f 126/114/103 136/124/103 137/125/103
f 127/115/104 137/125/104 138/126/104
f 128/116/105 138/126/105 129/117/105
f 129/117/106 139/127/106 140/128/106
f 130/118/107 140/128/107 131/119/107
f 131/119/108 141/129/108 132/120/108
f 132/120/109 142/130/109 143/131/109
f 133/121/110 143/131/110 134/20/110
f 5/122/66 1/132/66 35/133/66
f 135/123/111 35/133/111 36/134/111
f 136/124/112 36/134/112 37/135/112
f 137/125/113 37/135/113 38/136/113
f 138/126/114 38/136/114 39/137/114
f 139/127/115 39/137/115 40/138/115
f 140/128/116 40/138/116 141/129/116
f 141/129/117 41/139/117 142/130/117
f 142/130/118 42/140/118 143/131/118
f 143/131/119 43/141/119 44/2/119
f 20/14/120 19/16/120 145/142/120
f 15/143/121 144/1/121 3/3/121
f 4/144/66 25/4/66 24/6/66
f 24/6/122 54/5/122 23/8/122
f 23/8/123 64/7/123 22/10/123
f 22/10/124 74/9/124 21/12/124
f 21/12/125 84/11/125 20/14/125
f 20/14/126 94/13/126 19/16/126
f 114/17/127 18/19/127 19/16/127
f 124/18/128 17/145/128 18/19/128
f 17/145/129 124/18/129 16/21/129
f 144/1/130 15/143/130 16/21/130
f 34/25/131 2/22/131 45/24/131
f 33/27/132 34/25/132 46/26/132
f 46/26/133 47/29/133 32/28/133
f 31/31/134 32/28/134 48/30/134
f 48/30/135 49/33/135 30/32/135
f 29/35/136 30/32/136 50/34/136
f 28/37/137 29/35/137 51/36/137
f 51/36/138 52/39/138 27/38/138
f 26/41/139 27/38/139 53/40/139
f 25/4/140 26/41/140 54/5/140
f 45/24/141 14/23/141 55/43/141
f 46/26/142 45/24/142 56/44/142
f 56/44/143 57/45/143 47/29/143
f 48/30/144 47/29/144 58/46/144
f 49/33/145 48/30/145 59/47/145
f 50/34/146 49/33/146 60/48/146
f 51/36/147 50/34/147 61/49/147
f 61/49/148 62/50/148 52/39/148
f 53/40/149 52/39/149 63/51/149
f 63/51/150 64/7/150 54/5/150
f 12/52/151 65/53/151 55/43/151
f 65/53/152 66/54/152 56/44/152
f 66/54/153 67/55/153 57/45/153
f 58/46/154 57/45/154 68/56/154
f 59/47/155 58/46/155 69/57/155
f 69/57/156 70/58/156 60/48/156
f 70/58/157 71/59/157 61/49/157
f 71/59/158 72/60/158 62/50/158
f 63/51/159 62/50/159 73/61/159
f 64/7/160 63/51/160 74/9/160
f 11/62/161 75/63/161 65/53/161
f 75/63/162 76/64/162 66/54/162
f 76/64/163 77/65/163 67/55/163
f 68/56/164 67/55/164 78/66/164
f 69/57/165 68/56/165 79/67/165
f 79/67/166 80/68/166 70/58/166
f 80/68/167 81/69/167 71/59/167
f 81/69/168 82/70/168 72/60/168
f 73/61/169 72/60/169 83/71/169
f 74/9/170 73/61/170 84/11/170
f 10/72/171 85/73/171 75/63/171
f 85/73/172 86/74/172 76/64/172
f 86/74/173 87/75/173 77/65/173
f 87/75/174 88/76/174 78/66/174
f 79/67/175 78/66/175 89/77/175
f 89/77/176 90/78/176 80/68/176
f 90/78/177 91/79/177 81/69/177
f 82/70/178 81/69/178 92/80/178
f 83/71/179 82/70/179 93/81/179
f 84/11/180 83/71/180 94/13/180
f 85/73/181 10/72/181 95/83/181
f 86/74/182 85/73/182 96/84/182
f 96/84/183 97/85/183 87/75/183
f 97/85/184 98/86/184 88/76/184
f 98/86/185 99/87/185 89/77/185
f 99/87/66 100/88/66 90/78/66
f 91/79/186 90/78/186 101/89/186
f 92/80/187 91/79/187 102/90/187
f 93/81/188 92/80/188 103/91/188
f 94/13/189 93/81/189 104/15/189
f 95/83/190 9/82/190 105/93/190
f 96/84/191 95/83/191 106/94/191
f 97/85/192 96/84/192 107/95/192
f 107/95/193 108/96/193 98/86/193
f 108/96/194 109/97/194 99/87/194
f 109/97/195 110/98/195 100/88/195
f 101/89/196 100/88/196 111/99/196
f 102/90/197 101/89/197 112/100/197
f 112/100/198 113/101/198 103/91/198
f 113/101/199 114/17/199 104/15/199
f 105/93/200 8/92/200 115/103/200
f 106/94/201 105/93/201 116/104/201
f 107/95/202 106/94/202 117/105/202
f 108/96/203 107/95/203 118/106/203
f 118/106/204 119/107/204 109/97/204
f 119/107/205 120/108/205 110/98/205
f 111/99/206 110/98/206 121/109/206
f 121/109/207 122/110/207 112/100/207
f 113/101/208 112/100/208 123/111/208
f 114/17/209 113/101/209 124/18/209
f 115/103/210 7/102/210 125/113/210
f 116/104/211 115/103/211 126/114/211
f 117/105/212 116/104/212 127/115/212
f 118/106/213 117/105/213 128/116/213
f 119/107/214 118/106/214 129/117/214
f 129/117/215 130/118/215 120/108/215
f 130/118/216 131/119/216 121/109/216
f 131/119/217 132/120/217 122/110/217
f 132/120/218 133/121/218 123/111/218
f 133/121/219 134/20/219 124/18/219
f 125/113/220 6/112/220 135/123/220
f 135/123/221 136/124/221 126/114/221
f 127/115/222 126/114/222 137/125/222
f 128/116/223 127/115/223 138/126/223
f 138/126/224 139/127/224 129/117/224
f 130/118/225 129/117/225 140/128/225
f 140/128/226 141/129/226 131/119/226
f 141/129/227 142/130/227 132/120/227
f 133/121/228 132/120/228 143/131/228
f 143/131/229 144/1/229 134/20/229
f 135/123/230 5/122/230 35/133/230
f 136/124/231 135/123/231 36/134/231
f 137/125/232 136/124/232 37/135/232
f 138/126/233 137/125/233 38/136/233
f 139/127/234 138/126/234 39/137/234
f 140/128/235 139/127/235 40/138/235
f 40/138/236 41/139/236 141/129/236
f 41/139/237 42/140/237 142/130/237
f 42/140/238 43/141/238 143/131/238
f 144/1/239 143/131/239 44/2/239
f 19/16/120 146/146/120 145/142/120
