# Blender v2.69 (sub 0) OBJ File: 'stairs.blend'
# www.blender.org
o Cube.001_Cube.002
v 2.000000 0.000000 0.000000
v -0.000000 0.000000 -0.000000
v 2.000000 0.000000 -4.000000
v 0.000000 0.000000 -4.000000
v 2.000000 2.000000 -4.000000
v 0.000000 2.000000 -4.000000
v 2.000000 0.000000 0.000000
v 2.000000 2.000000 -4.000000
vn 0.000000 0.000000 -1.000000
vn -1.000000 -0.000000 -0.000000
vn 1.000000 -0.000000 0.000000
vn 0.000000 0.894427 0.447214
vn 0.000000 0.000000 1.000000
s off
f 5//1 3//1 6//1
f 4//2 2//2 6//2
f 7//3 3//3 8//3
f 2//4 1//4 6//4
f 3//1 4//1 6//1
f 3//5 5//5 8//5
f 1//4 5//4 6//4
