# Blender v2.69 (sub 0) OBJ File: 'stick.blend'
# www.blender.org
o Cylinder
v 0.163655 0.052611 -0.331282
v 0.163655 3.052610 -0.331282
v 0.241437 0.052611 -0.299064
v 0.241437 3.052610 -0.299064
v 0.273655 0.052611 -0.221282
v 0.273655 3.052610 -0.221282
v 0.241437 0.052611 -0.143500
v 0.241437 3.052610 -0.143500
v 0.163655 0.052611 -0.111282
v 0.163655 3.052610 -0.111282
v 0.085873 0.052611 -0.143500
v 0.085873 3.052610 -0.143500
v 0.053655 0.052611 -0.221282
v 0.053655 3.052610 -0.221282
v 0.085873 0.052611 -0.299064
v 0.085873 3.052610 -0.299064
vt 0.001385 0.005764
vt 0.001385 0.991393
vt 0.626594 0.503179
vt 0.000502 0.991957
vt 0.002815 0.000006
vt 0.000006 0.993603
vt 0.003950 0.003277
vt 0.000248 0.996240
vt 0.004118 0.005925
vt 0.001310 0.999994
vt 0.003784 0.007511
vt 0.002380 0.996228
vt 0.002865 0.008133
vt 0.001947 0.007502
vt 0.502178 0.866946
vt 0.002535 0.993558
vn 0.382684 0.000000 -0.923879
vn 0.923880 0.000000 -0.382684
vn 0.923880 0.000000 0.382684
vn 0.382683 0.000000 0.923880
vn -0.382684 0.000000 0.923879
vn -0.923880 0.000000 0.382683
vn 0.000000 1.000000 0.000000
vn -0.382684 0.000000 -0.923879
vn -0.923880 0.000000 -0.382683
vn 0.000000 -1.000000 0.000000
vn 0.382683 0.000000 -0.923880
vn 0.923879 0.000000 0.382684
vn -0.382684 0.000000 0.923880
vn -0.923879 0.000000 0.382684
vn 0.000000 1.000000 -0.000006
vn 0.000000 1.000000 0.000012
vn 0.000000 1.000000 0.000002
s off
f 1/1/1 2/2/1 3/3/1
f 3/3/2 4/4/2 5/5/2
f 5/5/3 6/6/3 7/7/3
f 7/7/4 8/8/4 9/9/4
f 9/9/5 10/10/5 11/11/5
f 11/11/6 12/12/6 13/13/6
f 6/6/7 4/4/7 8/8/7
f 15/14/8 16/15/8 1/1/8
f 13/13/9 14/16/9 15/14/9
f 3/3/10 5/5/10 7/7/10
f 2/2/11 4/4/11 3/3/11
f 4/4/2 6/6/2 5/5/2
f 6/6/12 8/8/12 7/7/12
f 8/8/4 10/10/4 9/9/4
f 10/10/13 12/12/13 11/11/13
f 12/12/14 14/16/14 13/13/14
f 4/4/15 2/2/15 16/15/15
f 8/8/7 4/4/7 16/15/7
f 10/10/16 8/8/16 12/12/16
f 8/8/17 16/15/17 14/16/17
f 12/12/7 8/8/7 14/16/7
f 16/15/8 2/2/8 1/1/8
f 14/16/9 16/15/9 15/14/9
f 1/1/10 3/3/10 15/14/10
f 3/3/10 7/7/10 15/14/10
f 7/7/10 9/9/10 15/14/10
f 9/9/10 11/11/10 15/14/10
f 11/11/10 13/13/10 15/14/10
