# Blender v2.69 (sub 0) OBJ File: 'stairs.blend'
# www.blender.org
o Cube.001_Cube.002
v 2.000000 0.000000 0.000000
v -0.000000 0.000000 -0.000000
v 2.000000 0.000000 -4.000000
v 0.000000 0.000000 -4.000000
v 2.000000 2.000000 -4.000000
v 0.000000 2.000000 -4.000000
v 2.000000 0.000000 0.000000
v 2.000000 2.000000 -4.000000
vt 0.895546 0.000138
vt 0.895546 0.309399
vt 0.586286 0.000138
vt 0.586009 0.138444
vt 0.309399 0.691665
vt 0.309399 0.000138
vt 0.000138 0.691945
vt 0.615978 0.691942
vt 0.615979 0.999862
vt 0.000138 0.691665
vt 0.586286 0.309399
vt 0.621353 0.999815
vt 0.000138 0.000138
vn 0.000000 0.000000 -1.000000
vn -1.000000 -0.000000 -0.000000
vn 1.000000 -0.000000 0.000000
vn 0.000000 0.894427 0.447214
vn 0.000000 0.000000 1.000000
s off
f 5/1/1 3/2/1 6/3/1
f 4/4/2 2/5/2 6/6/2
f 7/7/3 3/8/3 8/9/3
f 2/5/4 1/10/4 6/6/4
f 3/2/1 4/11/1 6/3/1
f 3/8/5 5/12/5 8/9/5
f 1/10/4 5/13/4 6/6/4
